<?xml version="1.0" standalone="no"?>
<!DOCTYPE svg PUBLIC "-//W3C//DTD SVG 20010904//EN"
 "http://www.w3.org/TR/2001/REC-SVG-20010904/DTD/svg10.dtd">
<svg version="1.0" xmlns="http://www.w3.org/2000/svg"
 width="1280.000000pt" height="1280.000000pt" viewBox="0 0 1280.000000 1280.000000"
 preserveAspectRatio="xMidYMid meet">

<g transform="translate(0.000000,1280.000000) scale(0.100000,-0.100000)"
fill="#000000" stroke="none">
<path d="M8633 10227 c-4 -6 -27 -25 -51 -41 -23 -16 -58 -46 -77 -67 -19 -22
-38 -39 -41 -39 -3 0 -22 -16 -41 -35 -19 -19 -38 -35 -42 -35 -3 0 -49 -41
-101 -90 -132 -126 -137 -130 -147 -130 -13 0 -66 -59 -81 -90 -7 -14 -41 -55
-75 -91 -59 -62 -108 -118 -152 -173 -11 -14 -25 -25 -31 -26 -6 0 -17 -13
-24 -29 -6 -17 -29 -49 -51 -72 -21 -23 -39 -44 -39 -45 0 -5 -128 -177 -145
-194 -17 -18 -65 -89 -65 -96 0 -8 -113 -169 -122 -172 -4 -2 -8 -10 -8 -18 0
-8 -5 -20 -11 -27 -13 -15 -52 -80 -76 -127 -10 -19 -21 -37 -24 -40 -13 -10
-161 -296 -256 -495 -26 -55 -53 -106 -60 -113 -7 -7 -13 -22 -13 -32 0 -10
-4 -22 -10 -25 -5 -3 -10 -13 -10 -22 0 -19 -56 -164 -82 -211 -10 -18 -18
-42 -18 -53 0 -12 -7 -35 -15 -52 -24 -52 -136 -397 -151 -467 -8 -36 -14 -93
-14 -128 l0 -62 1028 0 1029 1 5 207 c2 114 4 682 3 1262 -4 1734 -4 1840 -15
1840 -5 0 -13 -6 -17 -13z"/>
<path d="M4380 9966 c0 -2 8 -10 18 -17 15 -13 16 -12 3 4 -13 16 -21 21 -21
13z"/>
<path d="M4700 9646 c0 -2 8 -10 18 -17 15 -13 16 -12 3 4 -13 16 -21 21 -21
13z"/>
<path d="M9530 9348 c-141 -78 -197 -108 -222 -119 -16 -6 -28 -15 -28 -20 0
-5 -5 -9 -12 -9 -7 0 -29 -12 -50 -26 l-38 -27 0 -1103 0 -1104 220 0 220 0 1
148 c3 632 -2 2275 -6 2283 -9 14 -25 10 -85 -23z"/>
<path d="M10348 8533 c6 -2 18 -2 25 0 6 3 1 5 -13 5 -14 0 -19 -2 -12 -5z"/>
<path d="M2875 6469 c-2 -8 -25 -120 -49 -249 -25 -129 -59 -304 -76 -388 -16
-84 -30 -155 -30 -158 0 -3 21 -4 47 -2 l47 3 47 254 c26 139 50 255 52 257 2
3 29 -54 60 -125 121 -277 180 -402 187 -394 4 4 58 124 120 266 79 179 116
253 121 240 3 -10 26 -127 50 -260 l44 -243 49 0 c45 0 48 2 43 23 -3 12 -38
191 -78 397 -40 206 -75 379 -79 383 -4 4 -26 -38 -49 -95 -137 -331 -225
-528 -232 -516 -4 8 -65 149 -134 313 -70 165 -129 302 -131 304 -2 2 -6 -2
-9 -10z"/>
<path d="M9335 6453 c-171 -61 -272 -189 -282 -357 -12 -180 72 -322 236 -400
62 -29 73 -31 182 -31 113 0 116 1 191 38 91 44 146 102 192 197 28 59 31 74
31 166 0 96 -2 103 -38 176 -44 91 -102 147 -197 192 -57 27 -78 31 -165 33
-77 3 -112 -1 -150 -14z m249 -93 c159 -60 245 -246 187 -401 -27 -72 -84
-137 -152 -174 -44 -23 -69 -30 -135 -33 -73 -4 -89 -1 -140 22 -72 33 -127
84 -162 151 -23 43 -27 62 -27 140 0 75 4 97 24 135 42 81 118 145 201 171 50
15 148 9 204 -11z"/>
<path d="M4040 6065 l0 -395 205 0 205 0 0 45 0 45 -160 0 -160 0 0 150 0 150
160 0 160 0 0 45 0 45 -160 0 -160 0 0 110 0 110 160 0 160 0 0 45 0 45 -205
0 -205 0 0 -395z"/>
<path d="M4850 6415 l0 -45 110 0 110 0 0 -350 0 -350 50 0 50 0 0 350 0 350
110 0 110 0 0 45 0 45 -270 0 -270 0 0 -45z"/>
<path d="M6820 6065 l0 -395 200 0 200 0 0 45 0 45 -150 0 -150 0 0 350 0 350
-50 0 -50 0 0 -395z"/>
<path d="M7650 6065 l0 -395 195 0 195 0 0 45 0 45 -145 0 -145 0 0 350 0 350
-50 0 -50 0 0 -395z"/>
<path d="M8480 6065 l0 -395 45 0 45 0 0 395 0 395 -45 0 -45 0 0 -395z"/>
<path d="M5975 6272 c-43 -97 -93 -208 -111 -247 -18 -38 -62 -134 -97 -212
l-65 -143 52 0 53 0 53 120 52 120 152 0 151 0 50 -118 50 -117 52 -3 c47 -3
52 -1 46 15 -3 10 -58 131 -120 268 -63 138 -139 305 -170 373 -30 67 -58 122
-62 122 -3 0 -42 -80 -86 -178z m200 -262 c6 -19 3 -20 -114 -20 l-121 0 9 23
c5 12 32 72 61 132 l52 110 53 -112 c29 -62 56 -121 60 -133z"/>
<path d="M4432 5045 c7 -7 1670 -7 1676 0 3 3 -374 5 -838 5 -464 0 -841 -2
-838 -5z"/>
<path d="M6595 5027 c-3 -12 -4 -521 -3 -1131 2 -802 6 -1110 14 -1113 6 -2
17 17 24 43 9 30 20 48 32 52 10 2 18 11 18 18 0 8 4 22 9 32 5 9 24 47 41 84
17 36 37 72 45 78 8 7 15 20 15 30 0 9 8 25 19 34 10 9 21 30 24 45 3 16 12
35 19 42 8 8 27 37 42 64 16 28 32 52 36 55 4 3 10 15 14 28 4 12 12 22 17 22
5 0 9 7 9 17 0 16 47 85 62 91 4 2 8 10 8 18 0 13 26 61 40 74 3 3 21 30 40
60 19 30 38 57 42 58 5 2 8 12 8 23 0 11 18 37 40 59 22 22 40 45 41 52 0 7
16 33 35 58 19 25 37 53 40 63 4 9 13 17 20 17 8 0 14 6 14 13 0 7 14 26 31
43 17 16 40 49 50 72 11 24 36 58 55 75 19 18 34 38 34 45 0 7 7 15 15 18 8 3
17 15 21 27 7 22 7 22 58 79 18 20 43 53 57 72 13 20 30 36 37 36 6 0 12 5 12
11 0 10 41 58 108 125 17 18 32 34 32 37 0 2 50 53 111 113 155 153 167 164
174 164 10 0 35 27 35 38 0 5 11 15 25 22 14 7 32 24 40 37 l16 24 -836 -1
-835 -1 -5 -22z"/>
<path d="M9092 5025 c-17 -14 -33 -25 -36 -25 -4 0 -16 -9 -28 -20 -12 -11
-32 -20 -45 -20 -13 0 -23 -6 -23 -12 0 -14 -59 -58 -78 -58 -16 0 -52 -41
-46 -52 3 -5 1 -7 -4 -6 -5 2 -24 -9 -41 -24 -17 -16 -35 -28 -41 -28 -5 0
-10 -4 -10 -10 0 -5 -5 -10 -12 -10 -12 0 -18 -5 -94 -80 -23 -22 -44 -40 -47
-40 -4 0 -25 -18 -47 -40 -22 -22 -44 -40 -48 -40 -4 0 -16 -11 -26 -25 -10
-14 -25 -25 -32 -25 -8 0 -14 -7 -14 -15 0 -8 -4 -15 -9 -15 -9 0 -71 -57 -71
-65 0 -12 -54 -65 -67 -65 -7 0 -13 -7 -13 -15 0 -8 -4 -15 -9 -15 -5 0 -13
-9 -16 -20 -3 -11 -13 -20 -21 -20 -8 0 -14 -4 -14 -8 0 -9 -13 -25 -73 -94
-66 -76 -87 -98 -96 -98 -5 0 -13 -9 -16 -21 -4 -11 -20 -33 -36 -50 -16 -16
-29 -32 -29 -35 0 -3 -6 -11 -12 -19 -49 -51 -105 -122 -134 -167 -47 -74 -56
-86 -82 -116 -13 -15 -41 -55 -64 -89 -22 -35 -45 -63 -49 -63 -5 0 -9 -7 -9
-14 0 -19 -58 -106 -71 -106 -5 0 -9 -9 -9 -20 0 -11 -5 -20 -10 -20 -6 0 -15
-12 -20 -26 -6 -14 -21 -40 -35 -58 -14 -18 -25 -37 -25 -43 0 -5 -12 -23 -26
-39 -14 -16 -37 -53 -51 -81 -13 -29 -31 -53 -38 -53 -23 0 -29 -21 -11 -38
14 -14 16 -14 16 -1 0 8 36 46 80 84 44 39 104 91 132 117 29 26 64 52 80 59
15 6 30 19 33 28 2 9 28 32 57 51 29 18 81 58 115 86 34 29 76 60 93 69 16 8
30 19 30 23 0 4 37 30 81 57 45 28 87 56 94 63 8 6 17 12 21 12 4 0 23 12 43
28 19 15 49 36 67 47 17 11 56 37 87 58 31 20 61 37 67 37 5 0 10 4 10 10 0 5
19 18 43 30 23 11 67 36 97 55 30 19 63 38 73 41 9 4 17 10 17 14 0 5 21 16
48 26 26 10 54 24 62 31 77 62 155 113 173 113 7 0 30 9 52 20 22 11 49 20 62
20 12 0 25 5 28 10 3 6 13 10 22 10 9 0 31 11 49 25 18 14 41 25 51 25 11 0
28 7 39 15 10 8 27 15 37 15 9 0 17 5 17 10 0 6 8 10 19 10 10 0 38 11 62 23
24 13 62 30 84 37 22 7 50 19 61 27 12 7 32 16 45 18 55 10 67 24 73 89 10 88
5 454 -6 499 l-9 37 -244 0 -243 0 -30 -25z"/>
<path d="M10263 5043 c59 -2 155 -2 215 0 59 1 10 3 -108 3 -118 0 -167 -2
-107 -3z"/>
<path d="M10111 4264 c0 -11 3 -14 6 -6 3 7 2 16 -1 19 -3 4 -6 -2 -5 -13z"/>
</g>
</svg>
